<svg id="ccf56f4b-2a39-45ee-af6e-4481bfcbcb86" data-name="Calque 1" xmlns="http://www.w3.org/2000/svg" width="79" height="79" viewBox="0 0 79 79"><title>mf-logo</title><rect width="79" height="79" style="fill:#005892"/><rect x="29.03" y="14.69" width="20.94" height="20.94" rx="1.68" ry="1.68" style="fill:#fff"/><polygon points="44.05 17.65 46.29 19.98 43.11 20.79 44.05 17.65" style="fill:#005891"/><path d="M47.13,25.16a7.59,7.59,0,0,0-1.34-4.32l-.68.26a7.38,7.38,0,0,1,1.35,4.06,7,7,0,0,1-6,6.89,27.67,27.67,0,0,1-.23-13.8,7.3,7.3,0,0,1,2.6.79L43,18.4a7.58,7.58,0,0,0-2.6-.81,19.84,19.84,0,0,1,1.07-2.9h-1a21.6,21.6,0,0,0-1,2.85h0a7.63,7.63,0,0,0,0,15.25h.26c.26.93.56,1.88.93,2.85h.93c-.38-1-.71-2-1-2.93A7.63,7.63,0,0,0,47.13,25.16Z" style="fill:#005891"/><path d="M39.32,17.17h-.93" style="fill:#fff"/><polygon points="17.88 51.59 17.67 51.59 15.01 51.59 16.25 41.52 19.15 41.52 21.07 47.33 22.92 41.52 25.83 41.52 26.88 51.59 23.97 51.59 23.54 46.55 22.05 51.59 19.96 51.59 18.47 46.55 17.88 51.59" style="fill:#fff"/><polygon points="27.93 41.52 27.93 51.59 35.34 51.59 35.34 49.06 30.77 49.06 30.77 47.71 34.23 47.71 34.23 45.6 30.71 45.6 30.71 44.08 35.34 44.08 35.34 41.52 27.93 41.52" style="fill:#fff"/><polygon points="45.77 41.52 45.77 51.59 53.19 51.59 53.19 49.06 48.61 49.06 48.61 47.71 52.07 47.71 52.07 45.6 48.55 45.6 48.55 44.08 53.19 44.08 53.19 41.52 45.77 41.52" style="fill:#fff"/><polygon points="36.58 41.52 36.58 44.08 39.11 44.08 39.11 51.59 41.9 51.59 41.9 44.08 44.37 44.08 44.37 41.52 36.58 41.52" style="fill:#fff"/><path d="M59,41.43a5,5,0,1,0,5,5A5,5,0,0,0,59,41.43ZM59,49a2.56,2.56,0,1,1,2.56-2.56A2.56,2.56,0,0,1,59,49Z" style="fill:#fff"/><polygon points="15.01 54.74 15.01 64.3 17.77 64.3 17.77 61.11 20.89 61.11 20.89 59.16 17.77 59.16 17.77 57.19 21.81 57.19 21.81 54.74 15.01 54.74" style="fill:#fff"/><path d="M28.12,60.41s1.44-.16,1.44-2.79a2.57,2.57,0,0,0-2.48-2.88H22.49V64.3h2.33V60.78h.86l1.47,3.52H29.9Zm-1.56-1.52H24.78v-2.3h1.78a1.25,1.25,0,0,1,0,2.3Z" style="fill:#fff"/><path d="M36.08,54.74H33.94L30.33,64.3h2.73l.71-1.78h2.63L37,64.3h2.61Zm-2,5.94L35,58.11l.92,2.57Z" style="fill:#fff"/><polygon points="39.88 54.74 39.88 64.3 42.33 64.3 42.33 59.16 45.76 64.3 47.97 64.3 47.97 54.74 45.48 54.74 45.48 60.33 42.3 54.74 39.88 54.74" style="fill:#fff"/><path d="M55.07,61.23a2.42,2.42,0,1,1-.13-3.48L56.5,56a4.75,4.75,0,1,0,0,7.08Z" style="fill:#fff"/><polygon points="56.94 54.73 56.94 64.31 63.99 64.31 63.99 61.9 59.64 61.9 59.64 60.62 62.93 60.62 62.93 58.61 59.58 58.61 59.58 57.17 63.99 57.17 63.99 54.73 56.94 54.73" style="fill:#fff"/></svg>