<svg xmlns="http://www.w3.org/2000/svg" width="64" height="64" viewBox="0 0 64 64" role="img" aria-label="OpenWeatherMap">
  <rect width="64" height="64" rx="12" fill="#eb6e4b"/>
  <path d="M18 38c0-7.2 5.8-13 13-13 1.8 0 3.5.4 5 1.1 2.2-4.8 7.1-8.1 12.8-8.1 7.7 0 14 6.3 14 14 0 .8-.1 1.6-.2 2.4H20c-1.1 0-2 .9-2 2s.9 2 2 2h36c2.2 0 4-1.8 4-4 0-9.9-8.1-18-18-18-5.2 0-9.9 2.2-13.2 5.7C29.8 22.3 26 20 21.5 20 14.6 20 9 25.6 9 32.5c0 3.1 1.1 5.9 2.9 8.1.8-1.5 2.4-2.6 4.3-2.6H18z" fill="#fff"/>
</svg>
