<svg xmlns="http://www.w3.org/2000/svg" width="64" height="64" viewBox="0 0 64 64" role="img" aria-label="SkyMap">
  <defs>
    <linearGradient id="sm-sky" x1="18" y1="8" x2="50" y2="58" gradientUnits="userSpaceOnUse">
      <stop offset="0" stop-color="#1c2a58"/>
      <stop offset=".45" stop-color="#0b1230"/>
      <stop offset="1" stop-color="#070b18"/>
    </linearGradient>
    <radialGradient id="sm-glow" cx="28" cy="26" r="22" gradientUnits="userSpaceOnUse">
      <stop offset="0" stop-color="#f4e2a0" stop-opacity=".55"/>
      <stop offset=".55" stop-color="#7aa0ff" stop-opacity=".12"/>
      <stop offset="1" stop-color="#0b1230" stop-opacity="0"/>
    </radialGradient>
  </defs>
  <rect width="64" height="64" rx="14" fill="url(#sm-sky)"/>
  <rect width="64" height="64" rx="14" fill="url(#sm-glow)"/>
  <g fill="#fff8dc">
    <circle cx="14" cy="16" r="1.1"/>
    <circle cx="22" cy="11" r=".8"/>
    <circle cx="48" cy="14" r="1"/>
    <circle cx="54" cy="22" r=".7"/>
    <circle cx="10" cy="28" r=".7"/>
    <circle cx="52" cy="40" r=".9"/>
    <circle cx="18" cy="46" r=".7"/>
    <circle cx="44" cy="50" r=".8"/>
    <circle cx="8" cy="50" r=".6"/>
    <circle cx="38" cy="10" r=".6"/>
  </g>
  <g fill="#ffe9a0">
    <circle cx="24" cy="22" r="1.6"/>
    <circle cx="32" cy="18" r="1.25"/>
    <circle cx="39" cy="23" r="1.45"/>
    <circle cx="36" cy="31" r="1.2"/>
    <circle cx="28" cy="34" r="1.55"/>
    <circle cx="21" cy="30" r="1.15"/>
    <circle cx="17" cy="22" r="1.05"/>
  </g>
  <path d="M24 22l8-4 7 5-3 8-8 3-7-4z" fill="none" stroke="#ffe9a0" stroke-opacity=".35" stroke-width="1.1"/>
</svg>
